<svg xmlns="http://www.w3.org/2000/svg" width="24" height="24" viewBox="0 0 48 48">
  <defs>
    <clipPath id="c">
      <path d="M0 0h48v48H0z"/>
    </clipPath>
  </defs>
  <g clip-path="url(#c)">
    <path fill="#FFC107" d="M43.611 20.083H42v-.083H24v8h11.303C33.55 31.91 29.155 35 24 35c-6.627 0-12-5.373-12-12s5.373-12 12-12c3.058 0 5.844 1.152 7.961 3.039l5.657-5.657C33.64 5.053 28.999 3 24 3 12.955 3 4 11.955 4 23s8.955 20 20 20 20-8.955 20-20c0-1.326-.138-2.62-.389-3.917z"/>
    <path fill="#FF3D00" d="M6.306 14.691l6.571 4.816C14.627 16.079 19.0 13 24 13c3.058 0 5.844 1.152 7.961 3.039l5.657-5.657C33.64 5.053 28.999 3 24 3 16.318 3 9.73 7.337 6.306 14.691z"/>
    <path fill="#4CAF50" d="M24 43c5.083 0 9.676-1.944 13.139-5.11l-6.056-4.961C29.06 34.827 26.68 35.8 24 35.8c-5.133 0-9.512-3.465-11.08-8.174l-6.53 5.032C9.78 38.834 16.35 43 24 43z"/>
    <path fill="#1976D2" d="M43.611 20.083H42v-.083H24v8h11.303c-1.017 3.126-3.222 5.58-6.22 6.935l6.056 4.961C38.222 36.98 44 31.8 44 23c0-1.326-.138-2.62-.389-3.917z"/>
  </g>
</svg>


